<?xml version="1.0" encoding="utf-8"?>
<!-- Generator: Adobe Illustrator 22.1.0, SVG Export Plug-In . SVG Version: 6.00 Build 0)  -->
<svg version="1.1"
	 id="Layer_1" xmlns:cc="http://creativecommons.org/ns#" xmlns:dc="http://purl.org/dc/elements/1.1/" xmlns:rdf="http://www.w3.org/1999/02/22-rdf-syntax-ns#" xmlns:svg="http://www.w3.org/2000/svg"
	 xmlns="http://www.w3.org/2000/svg" xmlns:xlink="http://www.w3.org/1999/xlink" x="0px" y="0px" viewBox="0 0 48 44"
	 style="enable-background:new 0 0 48 44;" xml:space="preserve">
<style type="text/css">
	.st0{fill:#C3E2FC;}
	.st1{fill:#FFFFFF;}
	.st2{fill:#FFDD2D;}
	.st3{fill:#222425;}
</style>
<path class="st0" d="M5,11.8h34.6c1.8,0,3.3,1.5,3.3,3.3v23.2c0,1.8-1.5,3.3-3.3,3.3H5c-1.8,0-3.3-1.5-3.3-3.3V15.2
	C1.7,13.3,3.2,11.8,5,11.8z"/>
<path class="st1" d="M5,11.8h34.6c1.8,0,3.3,1.5,3.3,3.3v23.2c0,1.8-1.5,3.3-3.3,3.3H5c-1.8,0-3.3-1.5-3.3-3.3V15.2
	C1.7,13.3,3.2,11.8,5,11.8z"/>
<path class="st1" d="M42.9,33.2H30.7c-2.3,0-4.1-1.8-4.1-4.1V25c0-2.3,1.8-4.1,4.1-4.1H43c2.3,0,4.1,1.8,4.1,4.1v4.1
	C47.1,31.3,45.2,33.2,42.9,33.2z"/>
<path class="st2" d="M45.5,20.9H29.2c-0.5,1.1-1.4,2-2.6,2.5v7c1.2,0.4,2,1.3,2.5,2.4c0.9,0.1,1.6,0.4,2.2,0.8h13.9
	c0.4-0.8,1.1-1.4,1.9-1.9v-9.2C46.4,22.1,45.9,21.5,45.5,20.9z"/>
<polygon class="st2" points="11.5,11.3 18.3,2 25,6 31.3,11.9 11,12.3 "/>
<path class="st3" d="M18.9,1c-0.2,0-0.4,0-0.6,0.1c-0.9,0.2-1.5,0.8-2,1.4l0,0L10.5,11H6c-0.4,0-0.7,0.2-0.9,0.5
	c-0.2,0.3-0.2,0.7,0,1C5.3,12.8,5.6,13,6,13h34c1.1,0,2,0.9,2,2v2c0,0.4,0.2,0.7,0.5,0.9c0.3,0.2,0.7,0.2,1,0S44,17.4,44,17v-2
	c0-2.2-1.8-4-4-4h-2c0-2.2-1.8-4-4-4h-1.5c-0.4,0-0.7,0.2-0.9,0.5c-0.2,0.3-0.2,0.7,0,1C31.8,8.8,32.1,9,32.5,9H34c1.1,0,2,0.9,2,2
	h-3.6L20.7,1.6l0,0C20.2,1.2,19.5,1,18.9,1z M19.1,3c0.1,0,0.2,0.1,0.4,0.2l9.7,7.8H12.9L18,3.6l0,0l0,0c0.2-0.3,0.5-0.5,0.7-0.5
	C18.9,3,19,3,19.1,3z M4,7c-2.2,0-4,1.8-4,4v28c0,2.2,1.8,4,4,4h36c2.2,0,4-1.8,4-4v-2c0-0.4-0.2-0.7-0.5-0.9s-0.7-0.2-1,0
	S42,36.6,42,37v2c0,1.1-0.9,2-2,2H4c-1.1,0-2-0.9-2-2V11c0-1.1,0.9-2,2-2h5c0.4,0,0.7-0.2,0.9-0.5s0.2-0.7,0-1S9.4,7,9,7H4z M32,20
	c-2.5,0-4.8,1.3-6.1,3.5s-1.2,4.8,0,7S29.5,34,32,34h12c2.2,0,4-1.8,4-4v-6c0-2.2-1.8-4-4-4H32z M32,22h12c1.1,0,2,0.9,2,2v6
	c0,1.1-0.9,2-2,2H32c-1.8,0-3.4-1-4.3-2.5s-0.9-3.5,0-5S30.2,22,32,22z M32,24c-1.6,0-3,1.4-3,3s1.4,3,3,3c1.6,0,3-1.4,3-3
	S33.6,24,32,24z M32,26c0.6,0,1,0.4,1,1s-0.4,1-1,1c-0.6,0-1-0.4-1-1S31.4,26,32,26z"/>
</svg>
