<?xml version="1.0" encoding="utf-8"?>
<!-- Generator: Adobe Illustrator 22.1.0, SVG Export Plug-In . SVG Version: 6.00 Build 0)  -->
<svg version="1.1" id="Layer_1" xmlns="http://www.w3.org/2000/svg" xmlns:xlink="http://www.w3.org/1999/xlink" x="0px" y="0px"
	 viewBox="0 0 100 100" style="enable-background:new 0 0 100 100;" xml:space="preserve">
<style type="text/css">
	.st0{display:none;fill:#05A9F3;}
	.st1{fill:#FAFAFA;}
	.st2{fill:#FFDD2D;stroke:#000000;stroke-width:0.1989;stroke-miterlimit:10;}
	.st3{fill:#222425;}
</style>
<path class="st0" d="M60.5,53.7c-2.5-0.1-5-0.1-7.4-0.2c-2-0.1-4-0.1-6.1-0.2c0.1,0.2,0.2,0.3,0.3,0.5c3.6-0.1,7.2-0.1,10.8-0.1
	C58.9,53.7,59.7,53.7,60.5,53.7z"/>
<g>
	<path class="st1" d="M29.8,67.7H13.1c-1.2,0-2.1-0.9-2.1-2.1s0.9-2.1,2.1-2.1h16.7c1.2,0,2.1,0.9,2.1,2.1
		C31.8,66.8,30.9,67.7,29.8,67.7z"/>
	<path class="st1" d="M42.3,76.1H13.1c-1.2,0-2.1-0.9-2.1-2.1s0.9-2.1,2.1-2.1h29.2c1.2,0,2.1,0.9,2.1,2.1
		C44.3,75.2,43.4,76.1,42.3,76.1z"/>
</g>
<rect x="2.3" y="29.6" class="st2" width="95.3" height="13"/>
<g>
	<g>
		<path class="st3" d="M89.6,14.8H10.4C4.7,14.8,0,19.7,0,25.6v47.6C0,79.1,4.7,84,10.4,84h79.2c5.7,0,10.4-4.9,10.4-10.8V25.6
			C100,19.7,95.3,14.8,89.6,14.8z M95.8,73.2c0,3.6-2.8,6.5-6.2,6.5H10.4c-3.4,0-6.2-2.9-6.2-6.5V25.6c0-3.6,2.8-6.5,6.2-6.5h79.2
			c3.4,0,6.2,2.9,6.2,6.5L95.8,73.2L95.8,73.2z"/>
	</g>
</g>
<g>
	<g>
		<path class="st3" d="M97.9,27.8H2.1c-1.1,0-2.1,1-2.1,2.2v13c0,1.2,0.9,2.2,2.1,2.2h95.8c1.1,0,2.1-1,2.1-2.2V30
			C100,28.8,99.1,27.8,97.9,27.8z M95.8,40.8H4.2v-8.6h91.7L95.8,40.8L95.8,40.8z"/>
	</g>
</g>
<g>
	<g>
		<path class="st3" d="M39.6,58.1h-25c-1.1,0-2.1,1-2.1,2.2s0.9,2.2,2.1,2.2h25c1.1,0,2.1-1,2.1-2.2S40.7,58.1,39.6,58.1z"/>
	</g>
</g>
<g>
	<g>
		<path class="st3" d="M39.6,66.7h-25c-1.1,0-2.1,1-2.1,2.2s0.9,2.2,2.1,2.2h25c1.1,0,2.1-1,2.1-2.2C41.7,67.7,40.7,66.7,39.6,66.7z
			"/>
	</g>
</g>
<rect x="73.6" y="56.7" class="st2" width="10.7" height="11.1"/>
<g>
	<g>
		<path class="st3" d="M81.2,53.7h-4.2c-3.4,0-6.2,2.9-6.2,6.5v4.3c0,3.6,2.8,6.5,6.2,6.5h4.2c3.4,0,6.2-2.9,6.2-6.5v-4.3
			C87.5,56.6,84.7,53.7,81.2,53.7z M83.3,64.5c0,1.2-0.9,2.2-2.1,2.2h-4.2c-1.2,0-2.1-1-2.1-2.2v-4.3c0-1.2,0.9-2.2,2.1-2.2h4.2
			c1.1,0,2.1,1,2.1,2.2V64.5z"/>
	</g>
</g>
</svg>
