<?xml version="1.0" encoding="utf-8"?>
<!-- Generator: Adobe Illustrator 22.1.0, SVG Export Plug-In . SVG Version: 6.00 Build 0)  -->
<svg version="1.1" id="Слой_1" xmlns="http://www.w3.org/2000/svg" xmlns:xlink="http://www.w3.org/1999/xlink" x="0px" y="0px"
	 viewBox="0 0 100 100" style="enable-background:new 0 0 100 100;" xml:space="preserve">
<style type="text/css">
	.st0{display:none;}
	.st1{display:inline;fill:#08D948;}
	.st2{display:inline;fill:#05A9F3;}
	.st3{display:inline;fill:#FFFFFF;}
	.st4{display:inline;}
	.st5{fill:#FAFAFA;}
	.st6{fill:#FFDD2D;}
	.st7{fill:#222425;}
</style>
<g id="Layer_1" class="st0">
	<path class="st1" d="M24.9,32.3h51.9c3.8,0,6.8,4.7,6.8,10.4v45.8c0,5.8-3.1,10.4-6.8,10.4H24.9c-3.8,0-6.8-4.7-6.8-10.4V42.8
		C18.1,37,21.2,32.3,24.9,32.3z"/>
	<path class="st1" d="M54.2,24.5c6.3,0.2,12.7,0.4,19,0.5c3.3,0,6.9-0.3,10.4-0.3V8.4c0-4.6-3.1-8.4-6.8-8.4H24.9
		c-3.8,0-6.8,3.7-6.8,8.4v15C30.2,23.5,42.2,24.1,54.2,24.5z"/>
	<path class="st2" d="M60.5,53.7c-2.5-0.1-5-0.1-7.4-0.2c-2-0.1-4-0.1-6.1-0.2c0.1,0.2,0.2,0.3,0.3,0.5c3.6-0.1,7.2-0.1,10.8-0.1
		C58.9,53.7,59.7,53.7,60.5,53.7z"/>
	<rect y="12.5" class="st3" width="100" height="74.3"/>
	<g class="st4">
		<path class="st5" d="M29.8,67.7H13.1c-1.2,0-2.1-0.9-2.1-2.1s0.9-2.1,2.1-2.1h16.7c1.2,0,2.1,0.9,2.1,2.1
			C31.8,66.8,30.9,67.7,29.8,67.7z"/>
		<path class="st5" d="M42.3,76.1H13.1c-1.2,0-2.1-0.9-2.1-2.1s0.9-2.1,2.1-2.1h29.2c1.2,0,2.1,0.9,2.1,2.1
			C44.3,75.2,43.4,76.1,42.3,76.1z"/>
	</g>
	<rect x="18.1" y="76.1" class="st2" width="65.9" height="4.4"/>
</g>
<rect x="30" y="67.2" class="st6" width="38.4" height="14.6"/>
<ellipse class="st6" cx="49.8" cy="50.7" rx="5.3" ry="5.8"/>
<g>
	<g>
		<path class="st7" d="M50,100C22.4,100,0,77.6,0,50C0,22.4,22.4,0,50,0c27.6,0,50,22.4,50,50C100,77.6,77.6,100,50,100z M50,4.2
			C24.7,4.2,4.2,24.7,4.2,50S24.7,95.8,50,95.8S95.8,75.3,95.8,50S75.3,4.2,50,4.2z"/>
		<path class="st7" d="M50,58.3c-4.6,0-8.3-3.7-8.3-8.3c0-4.6,3.7-8.3,8.3-8.3c4.6,0,8.3,3.7,8.3,8.3C58.3,54.6,54.6,58.3,50,58.3z
			 M50,45.8c-2.3,0-4.2,1.9-4.2,4.2c0,2.3,1.9,4.2,4.2,4.2c2.3,0,4.2-1.9,4.2-4.2C54.2,47.7,52.3,45.8,50,45.8z"/>
		<path class="st7" d="M86.6,67.2c-0.3,0-0.5,0-0.8-0.2l-7.7-3.2c-1.1-0.4-1.6-1.7-1.1-2.7c0.4-1.1,1.7-1.6,2.7-1.1l7.7,3.2
			c1.1,0.4,1.6,1.7,1.1,2.7C88.2,66.7,87.4,67.2,86.6,67.2z M13.4,67.2c-0.8,0-1.6-0.5-1.9-1.3c-0.4-1.1,0.1-2.3,1.1-2.7l7.7-3.2
			c1.1-0.4,2.3,0.1,2.7,1.1c0.4,1.1-0.1,2.3-1.1,2.7l-7.7,3.2C14,67.2,13.7,67.2,13.4,67.2z M18.5,52.9h-8.3c-1.2,0-2.1-0.9-2.1-2.1
			c0-1.2,0.9-2.1,2.1-2.1h8.3c1.2,0,2.1,0.9,2.1,2.1C20.6,51.9,19.7,52.9,18.5,52.9z M89.6,52.1L89.6,52.1l-8.3,0
			c-1.2,0-2.1-0.9-2.1-2.1c0-1.1,0.9-2.1,2.1-2.1l0,0l8.3,0c1.2,0,2.1,0.9,2.1,2.1C91.7,51.2,90.7,52.1,89.6,52.1z M54.4,47.7
			c-0.5,0-1.1-0.2-1.5-0.6c-0.8-0.8-0.8-2.1,0-2.9l20.6-20.6c0.8-0.8,2.1-0.8,2.9,0c0.8,0.8,0.8,2.1,0,2.9L55.9,47.1
			C55.5,47.5,55,47.7,54.4,47.7z M21.1,40.1c-0.3,0-0.5-0.1-0.8-0.2l-7.7-3.2c-1.1-0.4-1.6-1.7-1.1-2.7c0.4-1.1,1.7-1.6,2.7-1.1
			l7.7,3.2c1.1,0.4,1.6,1.7,1.1,2.7C22.7,39.6,21.9,40.1,21.1,40.1z M78.9,40.1c-0.8,0-1.6-0.5-1.9-1.3c-0.4-1.1,0.1-2.3,1.1-2.7
			l7.7-3.2c1.1-0.4,2.3,0.1,2.7,1.1c0.4,1.1-0.1,2.3-1.1,2.7L79.7,40C79.4,40.1,79.1,40.1,78.9,40.1z M27.9,30
			c-0.5,0-1.1-0.2-1.5-0.6l-5.9-5.9c-0.8-0.8-0.8-2.1,0-2.9c0.8-0.8,2.1-0.8,2.9,0l5.9,5.9c0.8,0.8,0.8,2.1,0,2.9
			C29,29.8,28.4,30,27.9,30z M38,23.2c-0.8,0-1.6-0.5-1.9-1.3l-3.2-7.7c-0.4-1.1,0.1-2.3,1.1-2.7c1.1-0.4,2.3,0.1,2.7,1.1l3.2,7.7
			c0.4,1.1-0.1,2.3-1.1,2.7C38.6,23.2,38.3,23.2,38,23.2z M62,23.2c-0.3,0-0.5-0.1-0.8-0.2c-1.1-0.4-1.6-1.7-1.1-2.7l3.2-7.7
			c0.4-1.1,1.7-1.6,2.7-1.1c1.1,0.4,1.6,1.7,1.1,2.7l-3.2,7.7C63.5,22.7,62.8,23.2,62,23.2z M49.8,21.6c-1.2,0-2.1-0.9-2.1-2.1v-8.3
			c0-1.2,0.9-2.1,2.1-2.1c1.1,0,2.1,0.9,2.1,2.1v8.3C51.8,20.7,50.9,21.6,49.8,21.6z"/>
		<path class="st7" d="M68.8,83.3H31.3c-1.2,0-2.1-0.9-2.1-2.1V68.7c0-1.2,0.9-2.1,2.1-2.1h37.5c1.2,0,2.1,0.9,2.1,2.1v12.5
			C70.8,82.4,69.9,83.3,68.8,83.3z M33.3,79.2h33.3v-8.3H33.3V79.2z"/>
	</g>
</g>
</svg>
